<svg xmlns="http://www.w3.org/2000/svg" xmlns:xlink="http://www.w3.org/1999/xlink" id="visual" viewBox="0 0 900 600" width="900" height="600" version="1.1"><rect x="0" y="0" width="900" height="600" fill="#1c1711"/><defs><linearGradient id="grad1_0" x1="33.3%" y1="0%" x2="100%" y2="100%"><stop offset="20%" stop-color="#fbae3c" stop-opacity="1"/><stop offset="80%" stop-color="#fbae3c" stop-opacity="1"/></linearGradient></defs><defs><linearGradient id="grad1_1" x1="33.3%" y1="0%" x2="100%" y2="100%"><stop offset="20%" stop-color="#fbae3c" stop-opacity="1"/><stop offset="80%" stop-color="#835d28" stop-opacity="1"/></linearGradient></defs><defs><linearGradient id="grad1_2" x1="33.3%" y1="0%" x2="100%" y2="100%"><stop offset="20%" stop-color="#1c1711" stop-opacity="1"/><stop offset="80%" stop-color="#835d28" stop-opacity="1"/></linearGradient></defs><defs><linearGradient id="grad2_0" x1="0%" y1="0%" x2="66.7%" y2="100%"><stop offset="20%" stop-color="#fbae3c" stop-opacity="1"/><stop offset="80%" stop-color="#fbae3c" stop-opacity="1"/></linearGradient></defs><defs><linearGradient id="grad2_1" x1="0%" y1="0%" x2="66.7%" y2="100%"><stop offset="20%" stop-color="#835d28" stop-opacity="1"/><stop offset="80%" stop-color="#fbae3c" stop-opacity="1"/></linearGradient></defs><defs><linearGradient id="grad2_2" x1="0%" y1="0%" x2="66.7%" y2="100%"><stop offset="20%" stop-color="#835d28" stop-opacity="1"/><stop offset="80%" stop-color="#1c1711" stop-opacity="1"/></linearGradient></defs><g transform="translate(900, 0)"><path d="M0 432.7C-56.4 426.7 -112.7 420.6 -165.6 399.7C-218.4 378.8 -267.7 343 -298.4 298.4C-329.1 253.8 -341 200.4 -360.3 149.2C-379.6 98.1 -406.1 49 -432.7 0L0 0Z" fill="#4d381e"/><path d="M0 288.4C-37.6 284.4 -75.2 280.4 -110.4 266.5C-145.6 252.5 -178.5 228.7 -198.9 198.9C-219.4 169.2 -227.4 133.6 -240.2 99.5C-253.1 65.4 -270.7 32.7 -288.4 0L0 0Z" fill="#bd8432"/><path d="M0 144.2C-18.8 142.2 -37.6 140.2 -55.2 133.2C-72.8 126.3 -89.2 114.3 -99.5 99.5C-109.7 84.6 -113.7 66.8 -120.1 49.7C-126.5 32.7 -135.4 16.3 -144.2 0L0 0Z" fill="#fbae3c"/></g><g transform="translate(0, 600)"><path d="M0 -432.7C45.5 -400.3 90.9 -368 145.8 -352C200.7 -336 265 -336.4 305.9 -305.9C346.9 -275.5 364.3 -214.2 381.6 -158C398.8 -101.9 415.7 -51 432.7 0L0 0Z" fill="#4d381e"/><path d="M0 -288.4C30.3 -266.9 60.6 -245.3 97.2 -234.7C133.8 -224 176.7 -224.3 204 -204C231.2 -183.7 242.9 -142.8 254.4 -105.4C265.9 -67.9 277.1 -34 288.4 0L0 0Z" fill="#bd8432"/><path d="M0 -144.2C15.2 -133.4 30.3 -122.7 48.6 -117.3C66.9 -112 88.3 -112.1 102 -102C115.6 -91.8 121.4 -71.4 127.2 -52.7C132.9 -34 138.6 -17 144.2 0L0 0Z" fill="#fbae3c"/></g></svg>
